# xmcd CD database file
#
# Track frame offsets:
#	150
#	20165
#	45205
#	65207
#
# Disc length: 1202 seconds
#
# Revision: 0
# Processed by: cddbd v1.5.1PL2 Copyright (c) Steve Scherf et al.
# Submitted via: CDex 1.51
#
DISCID=3104b004
DTITLE=岡本真実 - 解らなくなった時には
DYEAR=1994
DGENRE=J-Pop
TTITLE0=解らなくなった時には
TTITLE1=一人じゃないからね
TTITLE2=解らなくなった時には(Backing Track)
TTITLE3=一人じゃないからね(Backing Track)
EXTD=YEAR: 1994
EXTT0=
EXTT1=
EXTT2=
EXTT3=
PLAYORDER=
